<svg width="60" height="60" viewBox="0 0 60 60" fill="none" xmlns="http://www.w3.org/2000/svg">
<path d="M30.0006 0.626849C29.4573 0.626849 28.906 0.630974 28.3665 0.663599C27.1581 0.730099 25.9699 0.896099 24.8046 1.10422C24.6756 1.12722 24.5476 1.15297 24.4191 1.17772C24.3089 1.19897 24.1984 1.21022 24.0886 1.23272C24.0274 1.24335 23.9661 1.25647 23.9051 1.26947C23.8441 1.28247 23.7826 1.29285 23.7214 1.30622C23.0795 1.4461 22.4374 1.60247 21.812 1.7836C21.7507 1.80085 21.6894 1.82047 21.6283 1.8386C21.5969 1.84797 21.568 1.86547 21.5366 1.87535C21.446 1.90247 21.3514 1.92072 21.2611 1.94872C21.0889 2.0071 20.9196 2.07497 20.747 2.13235C20.3836 2.25297 20.0208 2.36522 19.6637 2.4996C19.6196 2.51272 19.5791 2.53922 19.5352 2.5546C18.9951 2.76072 18.4622 2.99735 17.938 3.23397C17.4047 3.47447 16.8746 3.71585 16.359 3.98672C15.8426 4.25917 15.3344 4.54692 14.8351 4.8496C14.8116 4.86372 14.7855 4.87222 14.7612 4.88635C14.2877 5.17293 13.8224 5.47292 13.3659 5.78597C12.6084 6.30722 11.8846 6.86872 11.1809 7.45672C10.9137 7.67847 10.6506 7.90496 10.3915 8.1361C10.3438 8.17922 10.2925 8.2211 10.2446 8.2646C9.96788 8.51622 9.70363 8.77372 9.43675 9.03585C9.39988 9.07197 9.36375 9.10947 9.32662 9.14585C8.96187 9.50735 8.607 9.86747 8.26163 10.2475C8.05313 10.4765 7.856 10.7097 7.65575 10.9452C7.45588 11.1793 7.26075 11.4208 7.06825 11.6612C6.67931 12.145 6.30579 12.641 5.94825 13.1485C5.71912 13.4748 5.50325 13.8038 5.28737 14.1398C5.26575 14.1726 5.23513 14.1986 5.2135 14.2317C5.17017 14.2987 5.12729 14.366 5.08488 14.4336C5.06862 14.4593 5.04612 14.4811 5.02987 14.5071C4.97775 14.5908 4.93337 14.6793 4.88312 14.7641C4.68883 15.092 4.49907 15.4225 4.31388 15.7556C4.26888 15.837 4.21162 15.9123 4.167 15.9943V16.0125C3.94375 16.4241 3.72825 16.8379 3.5245 17.261C3.32237 17.681 3.13775 18.099 2.95538 18.5279C2.904 18.6484 2.858 18.7737 2.80837 18.8951C2.69762 19.1638 2.58113 19.4303 2.47788 19.703C2.42088 19.8551 2.36725 20.0086 2.31262 20.162C2.26898 20.2841 2.22615 20.4064 2.18412 20.5291H2.16587C2.11075 20.6915 2.07138 20.8614 2.019 21.0249C2.00375 21.0729 1.99737 21.1236 1.98275 21.1717C1.97275 21.2034 1.95562 21.2318 1.94625 21.2636C1.88287 21.4768 1.82438 21.6913 1.76262 21.9061V21.9245C1.75325 21.95 1.73325 21.972 1.72625 21.998C1.70387 22.0761 1.69275 22.158 1.671 22.2367C1.60287 22.4861 1.53088 22.7373 1.46913 22.9893C1.45088 23.0631 1.43163 23.1361 1.41388 23.2097C1.391 23.3065 1.38037 23.4065 1.35862 23.5035C1.27105 23.8935 1.19149 24.2852 1.12 24.6785C1.1095 24.7344 1.093 24.788 1.083 24.8439C1.07662 24.8685 1.06887 24.8926 1.06475 24.9172C1.00837 25.2415 0.96375 25.5625 0.917875 25.8904C0.917875 25.9091 0.902 25.9262 0.89975 25.9456C0.882625 26.0696 0.860375 26.1881 0.8445 26.3127H0.862625C0.810949 26.7279 0.768106 27.1442 0.734125 27.5612C0.727875 27.6041 0.7195 27.6467 0.716 27.6897H0.69775C0.67775 27.9445 0.6725 28.2041 0.6615 28.461C0.6615 28.4734 0.662 28.4856 0.6615 28.4974C0.661125 28.5036 0.661625 28.5097 0.6615 28.5156C0.63675 29.0102 0.625 29.5019 0.625 30.0027V30.021C0.62525 30.5217 0.63675 31.0135 0.661375 31.5081C0.661625 31.5144 0.661125 31.5205 0.661375 31.5264C0.679 31.8948 0.70375 32.2632 0.73475 32.6278C0.74475 32.7441 0.760625 32.86 0.77125 32.9766V33.0501C0.78175 33.1607 0.79525 33.2713 0.8075 33.3807C0.832875 33.6032 0.868625 33.8216 0.899375 34.0416C0.92475 34.2256 0.944125 34.4096 0.972875 34.5924C0.979125 34.6288 0.98525 34.666 0.991 34.7026C1.05975 35.131 1.12437 35.5475 1.21137 35.9695C1.30575 36.4245 1.40825 36.8812 1.5235 37.3282C1.52975 37.3354 1.53813 37.3393 1.54163 37.3463V37.3646C1.6495 37.7797 1.76537 38.1866 1.89037 38.5947C1.90575 38.6447 1.92988 38.6916 1.94575 38.7416C2.06275 39.1116 2.1835 39.4788 2.31287 39.8432C2.32875 39.8873 2.35225 39.9278 2.36812 39.9717C2.4075 40.0808 2.43763 40.1936 2.47813 40.3022C2.54986 40.4926 2.62332 40.6824 2.6985 40.8715C2.77425 41.0615 2.85788 41.2526 2.93725 41.4405C3.12237 41.8798 3.31826 42.3144 3.52475 42.7441C3.70238 43.1141 3.88287 43.4854 4.07562 43.8456C4.10538 43.9015 4.13688 43.9556 4.16738 44.011V44.0291C4.33463 44.3371 4.504 44.6275 4.6815 44.9287C4.74538 45.0362 4.81862 45.1355 4.8835 45.2408C5.04187 45.498 5.19488 45.7571 5.36088 46.0121C5.39687 46.0672 5.43462 46.1221 5.47087 46.1772C5.61962 46.4022 5.77537 46.6176 5.93 46.8382C5.9975 46.9355 6.063 47.0355 6.132 47.132C6.2395 47.2817 6.352 47.425 6.46237 47.5726C6.62237 47.7873 6.77425 48.006 6.93987 48.2152C6.95862 48.2387 6.97675 48.2646 6.99475 48.2887C7.08388 48.401 7.17938 48.5082 7.27013 48.6191C7.31613 48.6761 7.37012 48.7278 7.417 48.7843C7.54762 48.9416 7.66825 49.1072 7.80262 49.2618C7.95087 49.4326 8.11075 49.591 8.2615 49.7575C8.40388 49.9146 8.53688 50.0802 8.68388 50.2348C8.69825 50.2507 8.7235 50.2561 8.73888 50.2718C8.901 50.4418 9.0685 50.6013 9.23462 50.7675C9.3465 50.8819 9.44963 51.0048 9.56513 51.1162C9.63888 51.1887 9.71012 51.2653 9.7855 51.3366C9.93325 51.4767 10.0913 51.606 10.2443 51.7406C10.3746 51.8551 10.4998 51.9752 10.63 52.0893C10.6389 52.0948 10.6416 52.1018 10.648 52.1076C10.7566 52.2027 10.8685 52.2893 10.9785 52.383C11.1431 52.523 11.3064 52.6687 11.4742 52.8052C11.7426 53.0243 12.0244 53.238 12.3004 53.4478C12.3561 53.4903 12.4097 53.5347 12.4655 53.5765C12.5006 53.6023 12.5404 53.624 12.5759 53.6498C12.9051 53.893 13.2275 54.1363 13.5671 54.3658C13.911 54.6 14.2599 54.8265 14.6138 55.0452C14.6328 55.057 14.6498 55.0705 14.6688 55.0816L14.7605 55.1368C14.9916 55.2773 15.223 55.4066 15.4583 55.5408C15.6341 55.6411 15.813 55.7368 15.9907 55.8346C16.1011 55.8953 16.2095 55.9595 16.3213 56.0182C16.6126 56.172 16.905 56.3147 17.2025 56.4588C17.2195 56.467 17.2402 56.4688 17.2575 56.4771C17.4524 56.57 17.6481 56.663 17.845 56.7525C17.9869 56.8171 18.1244 56.892 18.2671 56.9545C18.363 56.9962 18.4634 57.0268 18.5609 57.0645C18.6484 57.0981 18.7318 57.1391 18.818 57.1748C19.1095 57.2948 19.403 57.4126 19.6994 57.5236C19.766 57.5488 19.8343 57.5723 19.9013 57.5971C19.9193 57.6033 19.9382 57.6087 19.9562 57.6152C19.9688 57.6215 19.9805 57.6287 19.9931 57.6335C20.2966 57.7435 20.6031 57.8455 20.9111 57.9455C20.9959 57.973 21.0833 57.992 21.1682 58.019L21.407 58.0924C21.5604 58.1399 21.711 58.1948 21.8659 58.2392C22.1278 58.3146 22.3906 58.3915 22.6554 58.4596C23.0437 58.5598 23.4361 58.6506 23.8304 58.735C23.8854 58.7467 23.9404 58.7602 23.9956 58.7715C24.0631 58.7856 24.1304 58.795 24.1976 58.8077C24.6372 58.8961 25.0732 58.9782 25.5196 59.0465C25.92 59.1078 26.3259 59.1485 26.7314 59.1933C26.7746 59.1996 26.8169 59.2075 26.8598 59.2116C26.9694 59.2232 27.0805 59.2379 27.1904 59.2478C27.2641 59.2552 27.3376 59.2603 27.4107 59.2661C27.6914 59.2908 27.9722 59.3049 28.2551 59.3214C28.3345 59.3267 28.4145 59.3355 28.4939 59.3396C28.6405 59.3469 28.7875 59.3525 28.9346 59.3577C29.29 59.3707 29.6409 59.376 29.9995 59.376C30.5065 59.376 31.0043 59.3647 31.505 59.339C31.9999 59.3142 32.4856 59.278 32.9738 59.2288H33.01C33.3515 59.1936 33.7 59.1469 34.038 59.1003C34.2772 59.0667 34.516 59.0299 34.7542 58.9901C34.8406 58.9761 34.9252 58.9685 35.0111 58.9538C35.1225 58.9343 35.2306 58.9191 35.3416 58.8985C35.7016 58.8322 36.0695 58.7577 36.4249 58.6782C36.4986 58.6617 36.572 58.64 36.6452 58.623C36.8494 58.576 37.0498 58.525 37.2511 58.4761C37.2944 58.4656 37.3368 58.4502 37.3796 58.4397C37.44 58.4244 37.5031 58.4191 37.5633 58.4033C37.6798 58.3721 37.7961 58.344 37.912 58.3115C38.0164 58.2827 38.1201 58.25 38.2241 58.2197C38.3975 58.1691 38.5662 58.1073 38.7383 58.0545C38.8659 58.0151 38.997 57.9857 39.1237 57.9442C39.1364 57.9388 39.1471 57.9302 39.1608 57.9261C39.4736 57.8233 39.7886 57.7086 40.097 57.5956L40.3908 57.4853C40.502 57.4431 40.6109 57.4002 40.7212 57.3568C41.111 57.2041 41.4966 57.03 41.878 56.8611C41.9384 56.8349 42.0016 56.8148 42.0616 56.7877L42.2269 56.7143C42.7169 56.4891 43.2005 56.2504 43.6772 55.9983C44.7422 55.4371 45.7609 54.8087 46.7435 54.1255C47.0221 53.9317 47.298 53.741 47.5698 53.538L47.79 53.3727C47.8413 53.3333 47.8854 53.284 47.9369 53.2442C48.2262 53.0205 48.5191 52.799 48.7998 52.5648C49.4283 52.0395 50.0347 51.4882 50.6175 50.9125C50.649 50.882 50.6788 50.8515 50.7093 50.8206C50.7273 50.8025 50.7463 50.7843 50.7643 50.7655C51.0646 50.4659 51.3584 50.1598 51.6455 49.8475C51.6753 49.8157 51.7085 49.7877 51.7373 49.7556C52.3113 49.1242 52.8535 48.4525 53.3713 47.7727C53.6427 47.4177 53.9059 47.0565 54.1608 46.6895C54.4536 46.2663 54.7347 45.843 55.0054 45.4042C55.0405 45.3484 55.081 45.2948 55.1155 45.239C55.2149 45.0755 55.313 44.9089 55.4092 44.7432C55.5424 44.5236 55.672 44.3075 55.7949 44.0823C55.8056 44.063 55.8211 44.0465 55.8319 44.0271V44.0089C56.0644 43.5807 56.2811 43.1461 56.4927 42.7053C56.6877 42.298 56.885 41.8741 57.0619 41.4568V41.4386C57.0853 41.3834 57.1124 41.3286 57.1357 41.2733C57.2979 40.8853 57.451 40.4935 57.5949 40.0983C57.6435 39.9653 57.6769 39.8284 57.7233 39.6945C57.8126 39.4386 57.8984 39.1815 57.9804 38.9232C58.1079 38.5226 58.2369 38.1195 58.3475 37.7116C58.4572 37.3072 58.5488 36.8923 58.6413 36.4813C58.7496 36.0006 58.8505 35.5203 58.935 35.0308V35.0127C59.0035 34.6155 59.0664 34.2218 59.1188 33.8193C59.1313 33.7213 59.1439 33.6237 59.1548 33.5256C59.2079 33.0778 59.2501 32.6206 59.2831 32.1668C59.3336 31.4747 59.3732 30.7785 59.375 30.0739V30.0005C59.375 28.1413 59.1911 26.329 58.8609 24.5658C58.8312 24.4072 58.8015 24.246 58.7691 24.0884C58.7366 23.9286 58.6944 23.7699 58.6589 23.6111C58.2514 21.7761 57.6845 19.993 56.9514 18.305C56.8892 18.1616 56.8151 18.0242 56.7495 17.8827C56.6561 17.6815 56.5697 17.4767 56.474 17.2768C56.456 17.2397 56.4362 17.204 56.419 17.1666V17.1482C56.2318 16.762 56.0345 16.3868 55.8315 16.01V15.9916C55.6354 15.6306 55.4179 15.2783 55.2072 14.9266C55.1775 14.8776 55.1451 14.8287 55.1155 14.7798C55.1065 14.7761 55.1245 14.7642 55.1155 14.7615C54.926 14.4496 54.7286 14.1477 54.528 13.8435C54.0244 13.0781 53.4852 12.3368 52.9123 11.622C52.3695 10.9461 51.786 10.3006 51.1865 9.67572C51.1685 9.6571 51.1495 9.63923 51.1315 9.62072L51.0946 9.58397C50.795 9.27435 50.4895 8.98047 50.1766 8.68422C49.2622 7.81872 48.2952 7.0041 47.2756 6.26072C46.6179 5.7811 45.9536 5.32685 45.2561 4.90197C45.2471 4.89797 45.2453 4.88797 45.2381 4.88372C44.6896 4.55047 44.1203 4.24497 43.549 3.94747C43.1196 3.72372 42.6869 3.50747 42.2455 3.30472C41.8062 3.1031 41.3555 2.91597 40.9051 2.7356C40.8926 2.73022 40.8809 2.72222 40.8683 2.71722C39.5139 2.17722 38.1086 1.73085 36.6637 1.39535C36.615 1.38397 36.5661 1.36997 36.5169 1.3586C36.3409 1.3186 36.1616 1.28522 35.9844 1.24847C35.7281 1.19557 35.471 1.14661 35.2132 1.1016C34.508 0.975099 33.8051 0.864599 33.0835 0.789474C32.6069 0.739724 32.116 0.687474 31.633 0.660849C31.597 0.659099 31.5591 0.662724 31.523 0.660849H31.5049C31.0034 0.635887 30.5014 0.623674 29.9994 0.624224L30.0006 0.626849ZM28.0544 3.34422C28.8475 3.44297 29.6406 3.55047 30.4412 3.65635C33.1999 4.02085 35.8181 4.35447 38.2811 4.57435C40.8356 5.4056 43.2161 6.62097 45.368 8.13622C43.3377 8.26947 41.1765 8.3216 38.887 8.22797C35.8321 8.09922 32.6558 7.74635 29.4865 7.32835C27.2465 7.03285 25.133 6.7186 23.0971 6.46535C21.4919 6.2652 19.8818 6.10607 18.2684 5.9881C21.2609 4.52335 24.5621 3.59535 28.0544 3.34422ZM17.5156 9.5316C19.5702 9.5556 21.7001 9.68972 23.8682 9.89872C26.0364 10.1078 28.224 10.3952 30.4412 10.6882C33.5783 11.1028 36.5406 11.4883 39.2909 11.6981C42.3317 11.9341 45.1924 11.9687 47.7734 11.9C48.4128 11.883 49.0209 11.8571 49.6094 11.8266C50.3639 12.6401 51.0527 13.5127 51.7024 14.4153C50.6177 14.6093 49.4781 14.7891 48.2139 14.9295C45.434 15.2382 42.2719 15.3985 38.887 15.26C35.8321 15.1312 32.6558 14.7783 29.4865 14.3602C27.2465 14.0648 25.133 13.7505 23.0971 13.4973C21.0612 13.2442 19.1089 13.0557 17.277 12.9466C15.9779 12.8657 14.7196 12.8268 13.5131 12.8181C12.3066 12.8093 11.1487 12.8306 10.0614 12.8731C9.84125 12.8821 9.64913 12.8991 9.43725 12.9098C10.394 11.7606 11.461 10.6893 12.5951 9.71522C14.2316 9.57824 15.8736 9.51693 17.5158 9.53147L17.5156 9.5316ZM17.5156 16.5635C19.5702 16.5875 21.7001 16.7217 23.8682 16.9307C26.0364 17.1397 28.224 17.4272 30.4412 17.7202C33.5783 18.1348 36.5406 18.5202 39.2909 18.73C42.3317 18.9661 45.1924 19.0006 47.7734 18.932C50.188 18.8677 52.326 18.7247 54.1626 18.5647C54.5018 19.2797 54.8232 20.0016 55.0989 20.7497C53.2049 21.2272 50.8944 21.682 48.2139 21.9797C45.434 22.2883 42.2719 22.4305 38.887 22.2919C38.378 22.2705 37.8607 22.251 37.3446 22.2185C35.4242 20.4051 32.8503 19.2808 30.0006 19.2808C28.0374 19.2808 26.2037 19.8101 24.6211 20.7313C24.1136 20.6605 23.6056 20.5932 23.0971 20.5294C21.0611 20.2762 19.1089 20.0877 17.277 19.9786C15.9779 19.8977 14.7196 19.8589 13.5131 19.85C12.3066 19.8411 11.1487 19.8625 10.0614 19.905C8.19075 19.9785 6.55487 20.1194 5.10413 20.254C5.44975 19.3718 5.84538 18.517 6.27913 17.6835C7.28487 17.4595 8.3525 17.2464 9.54737 17.0776C11.8895 16.7469 14.5953 16.5363 17.5158 16.5635H17.5156ZM17.5156 23.5955C18.7434 23.6096 20.0056 23.6737 21.2794 23.7607C20.5462 24.7841 20.0017 25.946 19.6637 27.1941C18.8693 27.1189 18.0736 27.0576 17.277 27.0103C14.6788 26.8487 12.2361 26.8516 10.0614 26.9371C7.88662 27.0226 5.96763 27.2029 4.36975 27.3594C4.00787 27.3946 3.7215 27.4184 3.39663 27.4511C3.46413 26.7368 3.56775 26.0365 3.69037 25.3397C5.2745 24.8845 7.23875 24.4355 9.54737 24.1096C11.8895 23.7789 14.5953 23.5682 17.5158 23.5955H17.5156ZM56.3291 25.3947C56.4429 26.0489 56.521 26.7082 56.5861 27.3777C56.1911 27.4935 55.7728 27.6098 55.3194 27.7265C53.388 28.2234 50.9939 28.7029 48.2139 29.0117C45.9356 29.2647 43.3906 29.4082 40.6864 29.3789C40.6133 28.1177 40.3314 26.9242 39.86 25.8171C42.6856 26.0142 45.3566 26.0281 47.7733 25.964C50.3541 25.8952 52.6526 25.7327 54.5666 25.56C55.2449 25.4987 55.7675 25.4474 56.3291 25.3947ZM17.5158 30.6275C18.1066 30.6346 18.7114 30.6745 19.3149 30.7008C19.396 31.9646 19.6965 33.1558 20.1779 34.2627C19.1841 34.1677 18.2129 34.0981 17.277 34.0425C14.6788 33.8808 12.2361 33.8836 10.0614 33.969C7.88662 34.0544 5.96763 34.2165 4.36975 34.3728C4.071 34.4022 3.885 34.4251 3.65363 34.4464C3.54323 33.7888 3.4575 33.1273 3.39663 32.4634C3.47413 32.4394 3.53638 32.4135 3.617 32.39C5.21288 31.9278 7.205 31.4722 9.54737 31.1415C11.8897 30.8107 14.5953 30.6002 17.5158 30.6275ZM56.6229 32.39C56.5607 33.0967 56.4639 33.7932 56.3475 34.4831C56.0187 34.5797 55.6859 34.6826 55.3194 34.7768C53.388 35.2736 50.9939 35.7348 48.2139 36.0437C45.4339 36.3526 42.2719 36.4945 38.887 36.3557C38.8022 36.3495 38.7161 36.3417 38.63 36.3376C39.3944 35.2976 39.9866 34.1276 40.3375 32.8491C42.9849 33.021 45.4939 33.075 47.7733 33.0143C50.3541 32.9457 52.6526 32.7649 54.5666 32.5921C55.3704 32.5196 55.9766 32.453 56.6229 32.3901V32.39ZM17.5158 37.6593C19.2309 37.6793 21.0045 37.7812 22.8034 37.9348C24.7075 39.6653 27.2248 40.7256 30.0006 40.7256C31.86 40.7256 33.5986 40.2547 35.1231 39.422C36.5582 39.5937 37.952 39.7421 39.2909 39.8442C42.3317 40.0801 45.1924 40.0967 47.7734 40.0278C50.3544 39.959 52.6526 39.7965 54.5666 39.624L54.9704 39.587C54.6309 40.4717 54.2236 41.3207 53.7954 42.1573C52.1729 42.5173 50.3115 42.8424 48.2139 43.0755C45.434 43.384 42.2719 43.526 38.887 43.3875C35.8321 43.2589 32.6558 42.9057 29.4865 42.4879C27.2465 42.1923 25.133 41.8781 23.0971 41.625C21.0612 41.3718 19.1089 41.2015 17.277 41.0925C15.9779 41.0116 14.7196 40.9543 13.5131 40.9456C12.3066 40.9368 11.1487 40.9762 10.0614 41.0191C8.46712 41.0816 7.07037 41.1841 5.78337 41.2945C5.44625 40.5725 5.11987 39.8466 4.84713 39.0912C6.20025 38.7447 7.7655 38.4248 9.54737 38.1732C11.8895 37.8425 14.5953 37.632 17.5158 37.6591V37.6593ZM17.5158 44.6913C19.5703 44.7148 21.7001 44.8495 23.8682 45.0586C26.0364 45.2676 28.224 45.5732 30.4412 45.8665C33.5783 46.281 36.5406 46.6483 39.2909 46.8577C42.3317 47.094 45.1924 47.1285 47.7734 47.0598C48.7471 47.0337 49.7203 46.9909 50.6925 46.9312C49.7276 48.1081 48.6651 49.2014 47.5163 50.1995C44.9062 50.4547 41.9967 50.547 38.887 50.4197C35.8321 50.291 32.6558 49.9562 29.4865 49.5385C27.2465 49.2429 25.133 48.9102 23.0971 48.6572C21.0611 48.4038 19.1089 48.2155 17.277 48.1063C15.9779 48.0256 14.7196 48.0048 13.5131 47.9962C12.3788 47.9881 11.2935 47.9962 10.2634 48.0326C9.51125 47.2098 8.81588 46.3376 8.17037 45.4255C8.61525 45.349 9.0695 45.2726 9.54737 45.2052C11.8896 44.8743 14.5953 44.6637 17.5158 44.6911V44.6913ZM15.6796 51.7417C16.2774 51.7258 16.8961 51.7363 17.5158 51.7417C19.5703 51.7652 21.7001 51.8997 23.8682 52.1088C26.0364 52.3176 28.224 52.587 30.4412 52.88C33.5783 53.2947 36.5406 53.6802 39.2909 53.8898C40.1071 53.9532 40.8969 53.9953 41.6776 54.0367C38.3755 55.6442 34.7001 56.6016 30.8085 56.7172C30.3669 56.6621 29.9282 56.6102 29.4865 56.552C27.2465 56.2566 25.133 55.9605 23.0971 55.7075C22.8352 55.6746 22.5842 55.6461 22.326 55.6156C19.496 54.7687 16.8735 53.4523 14.5229 51.7783C14.905 51.7596 15.285 51.7519 15.6796 51.742V51.7417Z" fill="#B3D3F1"/>
</svg>
